<?xml version="1.0" standalone="no"?>
<!DOCTYPE svg PUBLIC "-//W3C//DTD SVG 20010904//EN"
 "http://www.w3.org/TR/2001/REC-SVG-20010904/DTD/svg10.dtd">
<svg version="1.0" xmlns="http://www.w3.org/2000/svg"
 width="624.000000pt" height="624.000000pt" viewBox="0 0 624.000000 624.000000"
 preserveAspectRatio="xMidYMid meet">
<metadata>
Created by potrace 1.11, written by Peter Selinger 2001-2013
</metadata>
<g transform="translate(0.000000,624.000000) scale(0.100000,-0.100000)"
fill="#000000" stroke="none">
<path d="M2860 6227 c-3 -3 -23 -8 -45 -11 -113 -18 -276 -147 -330 -261 -81
-170 -70 -353 29 -510 33 -51 120 -128 192 -170 86 -50 111 -76 120 -120 3
-19 7 -234 7 -478 1 -331 -2 -448 -11 -464 -14 -26 -41 -42 -80 -48 -75 -11
-188 -44 -250 -72 -82 -37 -111 -44 -135 -32 -25 14 -66 60 -67 76 0 6 -4 13
-8 15 -4 2 -47 68 -96 148 -102 167 -156 254 -203 327 -18 28 -33 56 -33 61 0
6 -3 12 -8 14 -19 8 -114 185 -114 213 -1 16 12 62 26 100 18 46 27 91 28 130
1 77 -4 100 -37 165 -70 139 -227 211 -378 176 -161 -38 -269 -174 -263 -332
3 -74 16 -144 27 -144 4 0 11 -9 14 -21 10 -29 73 -97 115 -124 48 -30 94 -44
165 -50 101 -9 121 -14 143 -38 25 -26 242 -375 242 -388 0 -5 5 -9 10 -9 6 0
10 -4 10 -9 0 -10 79 -142 91 -151 3 -3 8 -9 10 -15 2 -5 33 -59 68 -118 91
-152 91 -165 3 -255 -75 -78 -144 -169 -196 -259 -1 -1 -13 -4 -27 -6 -23 -5
-94 19 -207 69 -63 27 -98 42 -182 77 -161 66 -260 117 -261 135 -1 9 -3 26
-4 37 -2 11 -5 38 -8 60 -17 138 -126 270 -258 314 -122 40 -236 24 -345 -48
-65 -42 -79 -57 -118 -123 -40 -68 -56 -134 -52 -219 5 -140 87 -264 218 -330
128 -65 310 -42 422 53 6 5 26 19 44 33 31 22 37 22 70 10 32 -11 129 -51 212
-87 14 -6 27 -12 30 -13 3 -1 23 -10 45 -19 47 -21 91 -40 143 -62 104 -45
162 -77 167 -94 7 -21 2 -65 -15 -161 -7 -35 -14 -127 -16 -204 -2 -77 -5
-149 -8 -160 -2 -11 -5 -25 -5 -31 -1 -14 -50 -66 -81 -85 -14 -9 -72 -34
-130 -56 -58 -22 -114 -44 -125 -48 -11 -4 -24 -9 -30 -11 -18 -5 -230 -85
-260 -99 -47 -21 -165 -55 -189 -55 -11 0 -32 9 -46 20 -14 11 -30 20 -37 20
-6 0 -13 4 -15 8 -7 18 -113 53 -171 57 -197 13 -357 -130 -363 -325 -6 -158
88 -291 236 -337 97 -29 156 -24 255 23 99 46 167 139 191 259 12 64 18 77 38
90 18 12 633 248 676 260 8 2 30 8 47 14 53 16 98 -3 133 -54 16 -24 30 -48
30 -53 0 -5 9 -17 20 -27 11 -10 18 -20 15 -23 -2 -3 6 -17 18 -32 12 -15 31
-40 42 -56 11 -15 39 -50 63 -78 23 -27 42 -58 42 -68 0 -9 -15 -34 -32 -55
-72 -83 -173 -183 -190 -188 -9 -4 -48 3 -85 15 -88 27 -182 27 -259 1 -32
-12 -60 -25 -63 -30 -4 -5 -13 -11 -21 -13 -20 -4 -110 -99 -110 -115 0 -7 -4
-13 -9 -13 -8 0 -21 -29 -40 -90 -2 -8 -5 -55 -5 -105 -1 -79 3 -98 28 -152
90 -195 334 -277 527 -177 18 9 39 22 46 30 7 7 23 21 35 31 92 74 136 218
112 364 -7 40 -10 85 -7 99 7 28 58 93 152 192 76 81 88 83 187 34 80 -40 186
-85 211 -90 10 -1 25 -5 33 -8 8 -3 43 -14 77 -23 100 -29 102 -33 104 -231 1
-56 -1 -106 -5 -112 -3 -6 -3 -13 1 -15 12 -8 7 -377 -6 -422 -12 -43 -22 -52
-152 -125 -77 -43 -102 -62 -151 -118 -50 -57 -79 -111 -105 -197 -17 -57 -22
-168 -10 -225 16 -70 59 -171 82 -190 8 -7 15 -16 15 -21 0 -11 79 -89 91 -89
5 0 9 -4 9 -9 0 -9 86 -56 145 -78 59 -22 208 -25 280 -7 171 44 323 198 364
368 11 45 16 169 8 206 -13 64 -42 135 -75 185 -38 60 -135 155 -157 155 -7 0
-20 9 -30 20 -10 11 -23 20 -30 20 -14 0 -58 46 -75 79 -9 18 -13 113 -14 350
-1 179 1 341 4 360 5 35 39 69 76 76 10 2 19 4 19 5 0 1 11 4 25 6 89 16 203
49 277 79 191 79 223 46 155 -157 -52 -156 -29 -270 72 -373 80 -81 139 -104
252 -101 137 4 234 67 295 191 64 130 39 277 -64 388 -14 15 -31 27 -37 27 -5
0 -10 4 -10 8 0 12 -82 50 -121 56 -19 3 -56 8 -84 11 -77 7 -96 13 -122 37
-37 35 -23 93 38 158 13 14 44 50 69 80 25 30 47 57 51 60 12 11 103 168 124
215 29 64 74 207 81 254 3 20 8 45 11 56 6 20 34 60 43 62 3 1 19 7 35 14 37
14 710 21 738 7 9 -5 37 -48 61 -96 79 -158 178 -251 316 -298 58 -19 201 -25
272 -11 72 13 167 67 232 130 102 99 154 221 154 362 0 83 -13 139 -50 215
-38 76 -46 88 -102 142 -67 67 -149 111 -247 134 -41 10 -172 11 -204 2 -16
-5 -39 -11 -50 -13 -42 -9 -142 -67 -187 -109 -45 -41 -138 -169 -138 -191 -1
-5 -12 -23 -25 -40 l-25 -30 -375 -3 c-424 -3 -426 -2 -444 66 -5 20 -22 82
-36 137 -15 55 -44 137 -65 182 -45 97 -54 132 -37 154 15 19 213 149 227 149
5 0 10 4 10 8 0 5 11 14 25 20 14 7 31 17 38 22 7 6 32 23 57 39 25 16 141 90
259 166 117 75 224 141 237 147 18 8 37 4 99 -21 88 -37 155 -44 234 -24 124
32 216 127 245 253 19 81 11 152 -27 228 -57 115 -163 183 -291 187 -96 3
-210 -40 -252 -95 -7 -8 -22 -26 -33 -40 -44 -50 -63 -110 -66 -210 -1 -52 -6
-102 -9 -110 -4 -8 -53 -44 -109 -80 -219 -139 -635 -405 -687 -440 -30 -20
-65 -39 -77 -42 -23 -6 -59 13 -108 57 -16 15 -50 44 -75 64 -103 82 -103 85
-13 227 7 10 28 46 48 79 61 103 53 99 180 109 104 9 164 36 238 105 154 145
157 389 7 541 -54 55 -102 82 -180 102 -67 17 -166 14 -197 -5 -7 -5 -13 -6
-13 -3 0 3 -26 -8 -57 -25 -91 -49 -169 -145 -191 -234 -12 -49 -7 -197 8
-230 7 -16 14 -32 15 -35 3 -14 31 -57 51 -78 26 -29 27 -91 0 -120 -9 -10
-16 -24 -16 -30 0 -7 -4 -12 -9 -12 -5 0 -11 -8 -13 -18 -3 -9 -29 -54 -59
-100 -59 -90 -91 -110 -139 -87 -30 15 -144 44 -197 51 -49 6 -85 32 -95 70
-14 52 -13 874 1 916 14 43 47 73 139 127 165 98 263 255 265 426 2 132 -18
201 -88 310 -51 80 -189 175 -295 202 -39 10 -182 17 -190 10z m229 -2637
c193 -54 354 -203 416 -385 27 -79 30 -103 29 -215 -1 -88 -6 -117 -29 -180
-15 -41 -43 -100 -63 -130 -45 -70 -137 -158 -198 -190 -27 -14 -55 -29 -63
-35 -35 -25 -152 -48 -246 -48 -80 -1 -123 6 -192 29 -43 15 -64 25 -148 71
-62 35 -184 183 -212 260 -24 62 -26 69 -30 83 -10 43 -15 81 -18 141 -12 273
176 525 447 599 86 23 222 23 307 0z"/>
</g>
</svg>
